<svg width="96" height="96" viewBox="0 0 96 96" fill="none" xmlns="http://www.w3.org/2000/svg">
  <rect x="6" y="6" width="84" height="84" rx="22" fill="#0A0A0A"/>
  <rect x="7.5" y="7.5" width="81" height="81" rx="20.5" stroke="#D7B56D" stroke-opacity="0.72" stroke-width="3"/>
  <path d="M24 55.5C26.6 46.4 35 40 48 40C61 40 69.4 46.4 72 55.5" stroke="#D7B56D" stroke-width="5" stroke-linecap="round"/>
  <path d="M30 55.5H66C69.3 55.5 72 58.2 72 61.5V65H24V61.5C24 58.2 26.7 55.5 30 55.5Z" fill="#D7B56D"/>
  <circle cx="34" cy="66" r="5" fill="#0A0A0A"/>
  <circle cx="62" cy="66" r="5" fill="#0A0A0A"/>
  <path d="M35 32C38.1 27.8 42.6 25.5 48.4 25.5C54 25.5 58.5 27.5 61.8 31.4" stroke="white" stroke-width="5" stroke-linecap="round"/>
  <path d="M61 31C56.7 33.1 52.6 34.5 48.6 35.3C42.8 36.4 38.6 38.1 36 40.5" stroke="white" stroke-width="5" stroke-linecap="round"/>
</svg>
